<svg width="420" height="388" viewBox="0 0 420 388" fill="none" xmlns="http://www.w3.org/2000/svg">
<path d="M53.3148 64.9965C98.253 65.2813 142.4 53.1711 180.903 29.9969C190.347 24.32 198.357 18.5174 207.123 11.9067C210.572 14.4083 213.874 17.1141 217.299 19.5916C223.187 23.7934 229.243 27.7542 235.452 31.4644C273.304 53.6378 316.426 65.2118 360.292 64.9708C360.394 66.8153 360.507 68.6587 360.63 70.5019C362.835 103.433 364.348 137.108 359.644 169.917C353.155 218.553 332.34 264.16 299.847 300.93C272.697 331.268 243.418 349.395 207.295 366.648C205.575 365.874 202.482 364.386 200.795 363.791C200.727 353.83 200.713 343.87 200.753 333.91L200.749 281.292L200.748 228.707C200.745 219.587 200.633 210.213 200.756 201.114C185.071 196.495 175.789 181.533 180.517 165.564C182.618 158.513 187.426 152.58 193.89 149.065C200.467 145.47 208.208 144.655 215.39 146.801C222.783 149.084 228.954 154.231 232.53 161.094C235.877 167.471 236.548 174.919 234.392 181.792C231.376 191.392 223.786 198.578 214.067 201.108L214.1 298.645L214.087 327.725C214.083 332.819 213.925 339.098 214.176 344.145C217.086 342.695 227.301 337.468 229.651 335.811C229.973 333.052 229.883 329.654 229.862 326.828C232.594 326.761 244.382 327.337 245.829 325.815C246.293 325.327 246.709 324.767 247.08 324.205C247.056 320.803 247.179 315.117 246.879 311.895C246.26 311.097 245.994 310.708 245.224 310.035C240.436 309.573 234.79 310.031 229.913 309.826L229.881 294.07C232.549 294.064 244.322 294.765 245.866 293.145C246.35 292.638 246.687 292.046 247.023 291.437C247.099 287.877 247.087 282.772 246.875 279.21C246.361 278.445 246.057 277.949 245.415 277.272C240.725 276.774 234.774 277.276 229.952 277.084L230.127 239.707C230.139 234.453 230.428 225.85 230.061 220.824C273.01 198.906 268.4 138.421 222.801 123.138C217.619 121.401 212.515 120.863 207.076 120.799C187.791 120.848 170.801 131.607 161.536 148.339C154.844 160.523 153.28 174.871 157.191 188.211C161.329 202.443 170.653 213.342 183.573 220.434C183.368 224.853 183.55 230.679 183.546 235.257L183.54 264.947L183.558 355.202C178.409 352.264 173.37 349.481 168.306 346.323C132.22 323.826 101.032 292.372 81.2407 254.628C60.6798 215.418 51.4039 173.399 50.6814 129.402C50.5457 122.15 50.5943 114.896 50.827 107.646C50.9136 105.003 50.9427 101.136 51.246 98.5853C51.1531 95.2326 51.5663 89.8262 51.7821 86.4425L53.3148 64.9965Z" fill="url(#paint0_linear_15_164)"/>
<path d="M53.3146 64.9965C98.2528 65.2813 142.4 53.1711 180.902 29.9969C190.347 24.32 198.357 18.5174 207.123 11.9067C207.314 13.6643 207.193 15.5421 207.232 17.3251C207.428 26.6872 207.232 36.0562 207.262 45.4195C207.275 48.9732 207.113 52.6649 207.277 56.2035C208.523 57.2699 211.614 59.0507 213.097 59.9299C216.239 61.7926 219.389 63.6383 222.549 65.4671C254.145 83.6559 289.199 95.03 325.457 98.8575C325.582 106.472 326.224 114.174 326.255 121.909C326.404 160.413 322.33 193.223 306.836 228.68C303.536 236.157 299.726 243.396 295.429 250.35C293.943 252.776 292.37 255.463 290.555 257.624C311.549 211.515 311.926 165.6 308.725 116.217C276.406 113.418 244.537 102.293 216.327 86.5202C213.339 84.8499 210.289 82.8654 207.244 81.3587C203.963 83.0602 200.573 85.0816 197.298 86.8731C192.48 89.4702 187.609 91.9668 182.688 94.3618C182.137 94.6167 180.802 95.1873 180.336 95.4596C176.985 96.9345 173.467 98.5433 170.084 99.9097C166.238 101.412 162.395 102.924 158.518 104.345C141.141 110.712 123.385 114.269 105.035 116.339C101.789 155.777 101.914 192.782 112.886 231.25C114.289 236.171 118.434 249.179 120.938 253.496L120.351 253.867C117.714 249.55 114.936 245.223 112.567 240.761C95.9998 209.559 89.0259 177.775 87.7001 142.757C87.4874 135.633 87.3972 128.507 87.4292 121.38C87.4507 118.257 87.6734 114.93 87.598 111.857C87.9123 109.751 88.085 101.437 88.2165 98.808L91.7178 98.3999L94.1453 98.1241L93.7716 98.0897L93.6818 97.9137L93.236 97.8981L94.1783 97.7029L94.0834 97.4562C93.4536 97.1996 93.0975 97.2683 92.4216 97.2911L92.0929 97.0827L92.1347 96.6974L92.673 97.0024L92.8656 96.7462C92.7173 96.1017 92.2674 95.7951 91.775 95.3193C90.2884 95.515 89.6397 96.4411 89.0612 96.6744C88.2907 96.9849 86.1798 95.3164 85.0759 96.1677C83.5306 97.3596 82.2001 96.6578 79.982 97.1291C77.7273 97.6081 75.4188 98.9994 73.5232 99.2391C69.943 99.6919 65.6634 98.9793 62.1888 99.4116C60.8228 99.5816 58.2798 101.202 57.051 101.602C56.5781 101.756 53.62 101.689 52.9492 101.743C52.5727 101.773 52.4162 102.872 51.7433 102.89L51.5774 102.155C51.2114 103.024 51.7304 103.517 51.2819 103.905C51.3106 102.483 51.44 99.8994 51.2458 98.5853C51.1529 95.2326 51.5661 89.8262 51.7819 86.4425L53.3146 64.9965Z" fill="white"/>
<path d="M182.688 94.3618C187.609 91.9667 192.48 89.4701 197.298 86.8731C200.573 85.0816 203.963 83.0601 207.244 81.3586C206.789 90.2486 207.701 99.9554 207.09 108.782C207.119 112.787 207.115 116.793 207.076 120.798C187.791 120.848 170.801 131.607 161.536 148.339C154.844 160.523 153.28 174.871 157.191 188.211C161.329 202.443 170.653 213.342 183.573 220.434C183.368 224.853 183.55 230.679 183.546 235.257L183.54 264.947L183.558 355.202C178.409 352.264 173.37 349.481 168.306 346.323C132.22 323.826 101.032 292.372 81.2407 254.628C60.6798 215.418 51.4039 173.399 50.6814 129.402C50.5457 122.15 50.5943 114.896 50.827 107.646C50.9136 105.003 50.9427 101.136 51.246 98.5853C51.4402 99.8994 51.3108 102.482 51.2821 103.905C51.7306 103.517 51.2116 103.024 51.5776 102.155L51.7435 102.89C52.4164 102.872 52.5729 101.773 52.9494 101.743C53.6202 101.688 56.5783 101.756 57.0512 101.602C58.28 101.202 60.823 99.5815 62.189 99.4115C65.6636 98.9792 69.9432 99.6918 73.5234 99.239C75.419 98.9993 77.7275 97.6081 79.9822 97.129C82.2003 96.6578 83.5309 97.3595 85.0761 96.1676C86.1801 95.3164 88.2909 96.9849 89.0614 96.6744C89.6399 96.441 90.2886 95.5149 91.7752 95.3193C92.2676 95.795 92.7175 96.1016 92.8658 96.7462L92.6732 97.0023L92.1349 96.6974L92.0931 97.0827L92.4218 97.291C93.0977 97.2683 93.4538 97.1996 94.0836 97.4561L94.1785 97.7028L93.2362 97.8981L93.682 97.9137L93.7718 98.0896L94.1455 98.1241L91.718 98.3999L88.2167 98.808C88.0852 101.437 87.9126 109.751 87.5982 111.857C87.6736 114.93 87.4509 118.257 87.4294 121.38C87.3974 128.507 87.4876 135.633 87.7003 142.757C89.0261 177.775 96 209.559 112.567 240.761C114.937 245.223 117.715 249.55 120.352 253.867L120.938 253.496C118.434 249.179 114.289 236.171 112.886 231.249C101.914 192.782 101.79 155.777 105.036 116.339C123.385 114.269 141.141 110.712 158.518 104.345C162.395 102.924 166.239 101.412 170.084 99.9096C173.467 98.5432 176.985 96.9344 180.336 95.4595C180.802 95.1872 182.137 94.6167 182.688 94.3618Z" fill="url(#paint1_linear_15_164)"/>
<path d="M182.688 94.3618C187.609 91.9667 192.48 89.4701 197.298 86.8731C200.573 85.0816 203.963 83.0601 207.244 81.3586C206.788 90.2486 207.701 99.9554 207.09 108.782C207.008 109.297 206.965 109.492 206.817 109.992C206.384 108.893 206.764 104.19 206.382 102.771L205.724 102.737C204.743 101.194 202.868 99.7136 201.494 98.3312C198.16 98.2453 194.132 98.6294 190.544 98.1267C189.65 98.0014 188.222 96.9775 187.102 96.9254C186.427 96.894 187.332 96.725 186.653 96.0481C185.539 96.3664 185.372 96.6295 184.676 95.7146L184.346 95.6876C183.993 95.9909 183.879 96.0887 183.487 96.3329C183.103 95.9158 182.857 94.9395 182.688 94.3618Z" fill="url(#paint2_linear_15_164)"/>
<path d="M170.084 99.9098C173.467 98.5434 176.985 96.9346 180.336 95.4597C179.809 97.4485 179.353 95.9509 179.112 97.4674L179.37 97.5554L179.944 97.1936L180.154 97.3493C180.098 98.407 178.779 100.069 178.09 100.882C177.069 102.086 173.291 102.126 171.977 101.519C171.565 101.684 171.71 101.597 171.398 101.929L171.085 101.566C171.148 101.141 171.189 100.938 171.077 100.521C170.714 100.338 170.403 100.161 170.084 99.9098Z" fill="url(#paint3_linear_15_164)"/>
<path d="M87.5985 111.857C87.4966 110.661 87.4628 109.608 87.1281 108.455C84.9315 107.304 85.7303 105.703 85.3851 104.251C85.2931 104.638 85.12 104.813 85.212 105.101C85.0673 104.575 84.775 103.828 85.0312 103.387C85.3851 102.778 86.5311 101.417 87.2017 101.247L87.6455 101.745C88.1004 101.239 87.1839 98.7949 87.9127 97.6663C88.9092 97.6348 88.1908 98.1905 88.9914 98.2256C90.4655 98.29 90.3888 97.7516 91.7184 98.3999L88.2171 98.808C88.0856 101.437 87.9129 109.751 87.5985 111.857Z" fill="url(#paint4_linear_15_164)"/>
<path d="M53.3146 64.9965C98.2528 65.2813 142.4 53.1711 180.902 29.9969C190.347 24.32 198.357 18.5174 207.123 11.9067C207.314 13.6643 207.193 15.5421 207.232 17.3251C207.428 26.6872 207.232 36.0562 207.262 45.4195C207.275 48.9732 207.113 52.665 207.277 56.2035C199.272 60.9885 191.947 65.4007 183.632 69.7503C155.792 84.6075 125.46 94.225 94.1453 98.1241L93.7716 98.0897L93.6818 97.9137L93.236 97.8981L94.1783 97.7029L94.0834 97.4562C93.4536 97.1996 93.0975 97.2683 92.4216 97.2911L92.0929 97.0828L92.1347 96.6974L92.673 97.0024L92.8656 96.7462C92.7173 96.1017 92.2674 95.7951 91.775 95.3193C90.2884 95.515 89.6397 96.4411 89.0612 96.6745C88.2907 96.9849 86.1798 95.3164 85.0759 96.1677C83.5307 97.3596 82.2001 96.6578 79.982 97.1291C77.7273 97.6082 75.4188 98.9994 73.5232 99.2391C69.943 99.6919 65.6634 98.9793 62.1888 99.4116C60.8228 99.5816 58.2798 101.202 57.051 101.602C56.5781 101.756 53.62 101.689 52.9492 101.743C52.5727 101.773 52.4162 102.872 51.7433 102.89L51.5774 102.155C51.2114 103.024 51.7304 103.517 51.2819 103.905C51.3106 102.483 51.44 99.8994 51.2458 98.5853C51.1529 95.2326 51.5661 89.8262 51.7819 86.4425L53.3146 64.9965Z" fill="url(#paint5_linear_15_164)"/>
<defs>
<linearGradient id="paint0_linear_15_164" x1="207" y1="78" x2="193.5" y2="407" gradientUnits="userSpaceOnUse">
<stop stop-color="#8307FF"/>
<stop offset="1" stop-color="#0F172A"/>
</linearGradient>
<linearGradient id="paint1_linear_15_164" x1="182" y1="120.5" x2="195.217" y2="407.628" gradientUnits="userSpaceOnUse">
<stop stop-color="#8307FF"/>
<stop offset="1" stop-color="#0F172A"/>
</linearGradient>
<linearGradient id="paint2_linear_15_164" x1="195" y1="134.5" x2="188.043" y2="376.3" gradientUnits="userSpaceOnUse">
<stop stop-color="#8307FF"/>
<stop offset="1" stop-color="#0F172A"/>
</linearGradient>
<linearGradient id="paint3_linear_15_164" x1="178.451" y1="95.6311" x2="161.568" y2="367.857" gradientUnits="userSpaceOnUse">
<stop stop-color="#8307FF"/>
<stop offset="1" stop-color="#0F172A"/>
</linearGradient>
<linearGradient id="paint4_linear_15_164" x1="72.5005" y1="78" x2="197.806" y2="427.249" gradientUnits="userSpaceOnUse">
<stop stop-color="#8307FF"/>
<stop offset="1" stop-color="#0F172A"/>
</linearGradient>
<linearGradient id="paint5_linear_15_164" x1="175.5" y1="128.5" x2="186.521" y2="407.808" gradientUnits="userSpaceOnUse">
<stop stop-color="#8307FF"/>
<stop offset="1" stop-color="#0F172A"/>
</linearGradient>
</defs>
</svg>
