<svg width="397" height="367" viewBox="0 0 397 367" fill="none" xmlns="http://www.w3.org/2000/svg">
<path d="M146 111H246C255.397 185.465 249.618 230.83 234 318C210.114 341.274 196.78 352.723 173.5 336C152.346 245.698 139.792 194.909 146 111Z" fill="white"/>
<path d="M50.395 61.4787C92.8723 61.7481 134.601 50.2933 170.996 28.3734C179.923 23.0038 187.494 17.5152 195.78 11.2624C199.041 13.6285 202.162 16.1879 205.399 18.5313C210.964 22.5057 216.689 26.2521 222.559 29.7615C258.337 50.7348 299.097 61.6824 340.561 61.4545C340.658 63.1991 340.765 64.9427 340.881 66.6861C342.965 97.8348 344.396 129.688 339.949 160.72C333.815 206.725 314.14 249.863 283.427 284.642C257.763 313.339 230.088 330.484 195.943 346.803C194.317 346.072 191.394 344.664 189.799 344.101C189.734 334.68 189.721 325.259 189.76 315.837L189.756 266.067L189.755 216.328C189.752 207.702 189.646 198.836 189.762 190.229C174.936 185.86 166.162 171.708 170.631 156.603C172.617 149.933 177.162 144.322 183.272 140.997C189.489 137.597 196.806 136.826 203.594 138.856C210.583 141.015 216.415 145.884 219.796 152.375C222.96 158.407 223.594 165.452 221.556 171.952C218.705 181.033 211.53 187.83 202.344 190.223L202.375 282.481L202.363 309.987C202.36 314.805 202.21 320.745 202.447 325.519C205.198 324.147 214.853 319.203 217.075 317.635C217.379 315.026 217.294 311.812 217.274 309.139C219.856 309.075 230.999 309.62 232.367 308.181C232.805 307.719 233.199 307.19 233.55 306.658C233.526 303.44 233.643 298.061 233.36 295.014C232.774 294.26 232.522 293.891 231.795 293.255C227.269 292.818 221.932 293.251 217.323 293.057L217.292 278.154C219.814 278.148 230.942 278.811 232.402 277.279C232.86 276.8 233.177 276.239 233.495 275.663C233.567 272.296 233.555 267.468 233.356 264.098C232.869 263.375 232.582 262.905 231.976 262.265C227.542 261.794 221.917 262.269 217.36 262.087L217.524 226.733C217.536 221.763 217.809 213.626 217.462 208.872C258.06 188.14 253.702 130.93 210.6 116.473C205.702 114.831 200.877 114.321 195.736 114.261C177.507 114.307 161.447 124.484 152.69 140.31C146.364 151.835 144.886 165.406 148.583 178.024C152.494 191.487 161.308 201.796 173.52 208.503C173.327 212.683 173.498 218.194 173.495 222.524L173.489 250.607L173.506 335.978C168.639 333.198 163.876 330.566 159.089 327.579C124.979 306.3 95.4991 276.548 76.7917 240.847C57.3567 203.759 48.5888 164.014 47.9058 122.398C47.7775 115.539 47.8235 108.677 48.0435 101.82C48.1253 99.3197 48.1528 95.6627 48.4395 93.2496C48.3517 90.0783 48.7423 84.9646 48.9462 81.764L50.395 61.4787Z" fill="url(#paint0_linear_25_88)"/>
<path d="M88.4996 98.5C87.8231 171.085 92.2046 207.506 120.5 254C105.168 210.84 100.518 182.16 105 116.5" stroke="black"/>
<path d="M50.3949 61.4787C92.8722 61.7481 134.601 50.2933 170.996 28.3734C179.923 23.0038 187.494 17.5152 195.78 11.2624C195.961 12.9248 195.846 14.701 195.883 16.3875C196.069 25.2429 195.883 34.1048 195.912 42.9613C195.924 46.3227 195.771 49.8146 195.926 53.1616C197.104 54.1703 200.026 55.8548 201.427 56.6864C204.397 58.4482 207.374 60.194 210.362 61.9239C240.228 79.1283 273.362 89.8867 307.634 93.507C307.753 100.71 308.359 107.994 308.388 115.311C308.53 151.731 304.678 182.765 290.033 216.303C286.914 223.375 283.312 230.223 279.251 236.8C277.846 239.095 276.359 241.636 274.643 243.681C294.488 200.067 294.844 156.637 291.818 109.927C261.27 107.28 231.146 96.7563 204.48 81.8375C201.656 80.2576 198.773 78.3805 195.895 76.9554C192.793 78.5648 189.589 80.4768 186.493 82.1713C181.939 84.6278 177.335 86.9893 172.683 89.2547C172.163 89.4958 170.901 90.0355 170.461 90.2931C167.293 91.6881 163.968 93.2098 160.77 94.5023C157.135 95.9235 153.502 97.3533 149.837 98.6972C133.411 104.72 116.628 108.084 99.2833 110.043C96.2151 147.346 96.3326 182.348 106.704 218.734C108.031 223.389 111.948 235.693 114.315 239.776L113.761 240.127C111.268 236.044 108.642 231.951 106.403 227.73C90.7426 198.217 84.1506 168.153 82.8974 135.031C82.6964 128.292 82.6111 121.551 82.6413 114.81C82.6617 111.857 82.8722 108.71 82.8009 105.803C83.098 103.811 83.2612 95.9468 83.3855 93.4603L86.6951 93.0743L88.9896 92.8134L88.6364 92.7808L88.5515 92.6143L88.1301 92.5996L89.0208 92.4149L88.9311 92.1816C88.3358 91.9389 87.9993 92.0039 87.3603 92.0254L87.0496 91.8284L87.0891 91.4639L87.598 91.7523L87.78 91.51C87.6399 90.9004 87.2146 90.6104 86.7491 90.1604C85.3439 90.3454 84.7308 91.2214 84.184 91.4422C83.4557 91.7358 81.4604 90.1577 80.4169 90.9628C78.9563 92.0902 77.6986 91.4264 75.6019 91.8722C73.4708 92.3253 71.2886 93.6412 69.4969 93.868C66.1127 94.2963 62.0675 93.6222 58.7831 94.0311C57.4919 94.1919 55.0882 95.7243 53.9267 96.1028C53.4797 96.2485 50.6836 96.1848 50.0495 96.236C49.6936 96.2648 49.5457 97.3039 48.9097 97.3209L48.7529 96.6261C48.4069 97.4484 48.8975 97.9145 48.4735 98.2811C48.5007 96.9359 48.623 94.4926 48.4394 93.2496C48.3516 90.0783 48.7422 84.9646 48.9461 81.764L50.3949 61.4787Z" fill="white"/>
<path d="M172.683 89.2547C177.335 86.9893 181.939 84.6279 186.494 82.1714C189.589 80.4768 192.794 78.5648 195.895 76.9554C195.464 85.3642 196.327 94.5456 195.749 102.894C195.777 106.683 195.773 110.472 195.736 114.261C177.507 114.307 161.447 124.484 152.69 140.31C146.364 151.835 144.886 165.406 148.583 178.024C152.494 191.487 161.308 201.796 173.52 208.503C173.327 212.684 173.498 218.194 173.495 222.524L173.489 250.607L173.506 335.978C168.639 333.198 163.876 330.566 159.089 327.579C124.979 306.3 95.4991 276.548 76.7917 240.847C57.3567 203.759 48.5888 164.015 47.9058 122.398C47.7775 115.539 47.8235 108.677 48.0435 101.82C48.1253 99.3197 48.1528 95.6627 48.4395 93.2496C48.6231 94.4926 48.5008 96.9359 48.4736 98.2812C48.8976 97.9145 48.4069 97.4484 48.753 96.6262L48.9098 97.321C49.5458 97.3039 49.6937 96.2648 50.0496 96.2361C50.6837 96.1849 53.4797 96.2485 53.9268 96.1028C55.0883 95.7244 57.492 94.192 58.7832 94.0312C62.0676 93.6223 66.1128 94.2963 69.497 93.868C71.2887 93.6413 73.4709 92.3254 75.602 91.8722C77.6987 91.4265 78.9564 92.0903 80.417 90.9629C81.4605 90.1577 83.4558 91.7359 84.184 91.4422C84.7309 91.2214 85.344 90.3455 86.7492 90.1604C87.2147 90.6104 87.64 90.9004 87.7801 91.5101L87.5981 91.7523L87.0892 91.4639L87.0497 91.8284L87.3604 92.0255C87.9994 92.0039 88.3359 91.939 88.9312 92.1816L89.0209 92.415L88.1302 92.5996L88.5516 92.6144L88.6365 92.7808L88.9897 92.8134L86.6951 93.0743L83.3856 93.4603C83.2613 95.9469 83.0981 103.811 82.8009 105.803C82.8723 108.71 82.6618 111.857 82.6414 114.81C82.6112 121.552 82.6965 128.293 82.8975 135.031C84.1507 168.153 90.7427 198.217 106.403 227.73C108.642 231.951 111.268 236.044 113.761 240.127L114.315 239.776C111.948 235.693 108.031 223.389 106.704 218.734C96.3327 182.348 96.2152 147.346 99.2834 110.043C116.628 108.084 133.411 104.72 149.837 98.6972C153.502 97.3534 157.135 95.9236 160.77 94.5023C163.968 93.2099 167.293 91.6881 170.461 90.2931C170.901 90.0355 172.163 89.4958 172.683 89.2547Z" fill="url(#paint1_linear_25_88)"/>
<path d="M172.684 89.2547C177.335 86.9893 181.94 84.6279 186.494 82.1714C189.59 80.4768 192.794 78.5648 195.895 76.9554C195.465 85.3642 196.327 94.5456 195.75 102.894C195.672 103.382 195.631 103.566 195.492 104.039C195.083 103 195.442 98.551 195.081 97.2092L194.459 97.177C193.532 95.7174 191.759 94.3169 190.46 93.0093C187.309 92.928 183.501 93.2913 180.11 92.8159C179.264 92.6974 177.915 91.7289 176.856 91.6796C176.219 91.6499 177.074 91.4901 176.432 90.8498C175.378 91.1508 175.221 91.3997 174.563 90.5344L174.251 90.5088C173.918 90.7957 173.81 90.8882 173.439 91.1192C173.076 90.7247 172.844 89.8012 172.684 89.2547Z" fill="url(#paint2_linear_25_88)"/>
<path d="M160.77 94.5023C163.967 93.2099 167.293 91.6881 170.46 90.2931C169.962 92.1742 169.531 90.7576 169.303 92.1921L169.547 92.2753L170.09 91.9331L170.288 92.0803C170.235 93.0809 168.988 94.653 168.337 95.4219C167.372 96.5606 163.801 96.5986 162.559 96.0246C162.169 96.1802 162.307 96.0983 162.012 96.4118L161.716 96.0687C161.775 95.6665 161.814 95.4749 161.708 95.0804C161.365 94.9075 161.071 94.7401 160.77 94.5023Z" fill="url(#paint3_linear_25_88)"/>
<path d="M82.801 105.803C82.7047 104.672 82.6727 103.676 82.3563 102.585C80.28 101.497 81.0351 99.9821 80.7088 98.6092C80.6218 98.9744 80.4582 99.1407 80.5452 99.4128C80.4084 98.9156 80.1321 98.209 80.3742 97.7919C80.7088 97.2158 81.7921 95.928 82.4259 95.7672L82.8454 96.2382C83.2754 95.7595 82.4091 93.4479 83.098 92.3804C84.0399 92.3506 83.3609 92.8762 84.1176 92.9094C85.511 92.9703 85.4385 92.4611 86.6952 93.0743L83.3857 93.4603C83.2614 95.9469 83.0982 103.811 82.801 105.803Z" fill="url(#paint4_linear_25_88)"/>
<path d="M50.3949 61.4787C92.8722 61.7481 134.601 50.2933 170.996 28.3734C179.923 23.0038 187.494 17.5152 195.78 11.2624C195.961 12.9248 195.846 14.701 195.883 16.3875C196.069 25.2429 195.883 34.1048 195.912 42.9613C195.924 46.3227 195.771 49.8146 195.926 53.1616C188.359 57.6877 181.436 61.861 173.576 65.9752C147.26 80.0283 118.589 89.1253 88.9896 92.8134L88.6364 92.7808L88.5515 92.6143L88.1301 92.5996L89.0208 92.4149L88.9311 92.1816C88.3358 91.9389 87.9993 92.0039 87.3603 92.0254L87.0496 91.8284L87.0891 91.4639L87.598 91.7523L87.78 91.5101C87.6399 90.9004 87.2146 90.6104 86.7491 90.1604C85.3439 90.3454 84.7308 91.2214 84.184 91.4422C83.4557 91.7358 81.4604 90.1577 80.4169 90.9628C78.9563 92.0902 77.6986 91.4265 75.6019 91.8722C73.4708 92.3253 71.2886 93.6413 69.4969 93.868C66.1127 94.2963 62.0675 93.6222 58.7831 94.0311C57.4919 94.1919 55.0882 95.7243 53.9267 96.1028C53.4797 96.2485 50.6836 96.1848 50.0495 96.2361C49.6936 96.2648 49.5457 97.3039 48.9097 97.321L48.7529 96.6261C48.4069 97.4484 48.8975 97.9145 48.4735 98.2811C48.5007 96.9359 48.623 94.4926 48.4394 93.2496C48.3516 90.0783 48.7422 84.9646 48.9461 81.764L50.3949 61.4787Z" fill="url(#paint5_linear_25_88)"/>
<defs>
<linearGradient id="paint0_linear_25_88" x1="195.665" y1="73.7784" x2="182.887" y2="384.971" gradientUnits="userSpaceOnUse">
<stop stop-color="#8307FF"/>
<stop offset="1" stop-color="#0F172A"/>
</linearGradient>
<linearGradient id="paint1_linear_25_88" x1="172.033" y1="113.978" x2="184.543" y2="385.565" gradientUnits="userSpaceOnUse">
<stop stop-color="#8307FF"/>
<stop offset="1" stop-color="#0F172A"/>
</linearGradient>
<linearGradient id="paint2_linear_25_88" x1="184.321" y1="127.22" x2="177.737" y2="355.933" gradientUnits="userSpaceOnUse">
<stop stop-color="#8307FF"/>
<stop offset="1" stop-color="#0F172A"/>
</linearGradient>
<linearGradient id="paint3_linear_25_88" x1="168.678" y1="90.4551" x2="152.698" y2="347.946" gradientUnits="userSpaceOnUse">
<stop stop-color="#8307FF"/>
<stop offset="1" stop-color="#0F172A"/>
</linearGradient>
<linearGradient id="paint4_linear_25_88" x1="68.5298" y1="73.7785" x2="187.115" y2="404.074" gradientUnits="userSpaceOnUse">
<stop stop-color="#8307FF"/>
<stop offset="1" stop-color="#0F172A"/>
</linearGradient>
<linearGradient id="paint5_linear_25_88" x1="165.889" y1="121.545" x2="176.321" y2="385.736" gradientUnits="userSpaceOnUse">
<stop stop-color="#8307FF"/>
<stop offset="1" stop-color="#0F172A"/>
</linearGradient>
</defs>
</svg>
