<svg width="1688" height="354" viewBox="0 0 1688 354" fill="none" xmlns="http://www.w3.org/2000/svg">
<path d="M97.6984 59.7491C136.139 55.7552 170.651 74.4622 186.254 110.015C173.959 117.355 161.449 124.327 148.741 130.922C145.44 125.103 142.608 120.395 138.228 115.298C124.825 99.7041 91.7987 96.585 76.5448 111.063C71.1229 116.125 67.9849 123.173 67.8492 130.594C67.5433 151.488 93.9886 158.301 109.429 163.462C131.461 170.827 158.135 178.121 174.698 195.051C199.513 220.418 196.474 267.896 170.939 291.776C150.137 311.229 124.367 314.15 97.2393 313.606C55.9015 309.02 33.2826 295.457 14.3037 258.613C27.2487 251.338 40.2389 244.144 53.2735 237.031C57.012 244.877 61.8087 253.008 68.4935 258.675C84.0238 271.841 107.168 275.725 126.169 269.051C140.07 264.169 147.517 253.671 146.357 239.267C144.759 219.417 119.102 213.031 103.901 207.799C83.6199 200.817 61.5042 195.122 44.7853 181.241C31.9057 170.704 23.856 155.379 22.4834 138.783C18.1622 90.8756 53.1133 63.6122 97.6984 59.7491Z" fill="#292929"/>
<path d="M291.46 131.557C294.998 131.26 299.999 131.568 303.673 131.794C324.333 133.166 343.634 142.588 357.438 158.038C376.611 179.837 380.228 208.001 378.466 235.814L252.726 235.902C259.827 272.42 292.173 287.122 325.584 268.977C330.769 266.162 335.632 260.531 339.597 256.198L354.906 265.275C360.458 268.956 366.108 272.482 371.852 275.852C341.955 320.115 277.504 326.29 237.598 291.985C200.792 260.346 200.228 193.843 232.109 158.676C247.839 141.326 268.147 132.835 291.46 131.557Z" fill="#292929"/>
<path d="M958.253 131.558C997.115 129.115 1029.93 153.454 1040.34 190.224C1044.92 206.378 1044.48 219.401 1044.13 235.866L919.127 235.889C926.471 281.33 977.226 290.153 1005.57 256.051C1010.48 258.755 1015.73 262.139 1020.54 265.112C1026.15 268.924 1031.83 272.629 1037.59 276.222C1023.79 299.397 996.406 311.906 970.36 313.521C918.278 316.749 877.43 280.507 875.724 227.977C874.042 176.08 904.86 134.482 958.253 131.558Z" fill="#292929"/>
<path d="M694.78 135.952C709.347 135.613 723.918 135.568 738.486 135.815L738.496 211.491L738.444 308.845C724.432 309.058 710.418 309.061 696.406 308.855C696.2 301.544 696.355 294.059 696.423 286.733C693.877 289.886 691.172 292.907 688.318 295.782C676.234 307.969 661.624 314 644.809 313.789C600.054 313.228 578.132 280.181 579.792 237.896C580.16 228.512 579.723 216.313 579.728 206.719L579.761 135.941L594.478 135.735C604.175 135.71 613.872 135.76 623.569 135.888C623.509 137.285 623.466 138.683 623.442 140.082C622.992 171.961 623.773 203.192 623.679 236.139C623.577 271.771 657.582 284.514 683.464 264.001C697.634 252.77 694.742 221.647 694.741 204.284L694.78 135.952Z" fill="#292929"/>
<path d="M481.492 131.533C514.409 129.797 546.214 145.559 560.724 175.961C548.844 182.384 535.991 190.234 523.896 195.586C513.941 177.484 498.664 168.711 477.817 172.271C466.335 174.331 456.117 180.813 449.353 190.327C425.147 224.566 448.224 281.988 494.963 272.605C510.324 269.521 516.922 261.726 525.34 249.487L537.615 256.171C545.489 260.686 553.429 265.084 561.432 269.365C558.254 275.127 554.501 280.553 550.23 285.558C519.547 321.076 460.698 322.594 425.876 292.393C388.677 260.131 385.889 197.483 418.428 160.958C435.589 141.696 456.091 133.18 481.492 131.533Z" fill="#292929"/>
<path d="M853.116 132.262C858.078 131.682 864.647 132.208 869.576 132.848L869.452 175.876C844.643 174.351 819.974 177.011 812.98 206.393C810.066 218.634 811.206 235.431 811.212 248.304C811.316 268.476 811.274 288.647 811.086 308.818C802.83 308.939 775.539 309.816 769.071 308.816C767.582 306.608 768.094 306.196 768.023 303.045L768.066 136.074C782.079 135.585 796.102 135.473 810.122 135.736C810.008 144.908 810.224 154.49 810.304 163.694C821.062 144.981 831.464 135.791 853.116 132.262Z" fill="#292929"/>
<path d="M290.884 167.764C317.848 165.703 333.063 179.843 336.759 205.84L299.603 206.152C283.987 206.188 268.371 206.138 252.755 206.001C257.564 183.764 267.685 170.941 290.884 167.764Z" fill="white"/>
<path d="M955.327 167.716C981.776 166.338 1000.18 178.288 1002.48 206.02L965.844 206.148C950.208 206.274 934.565 206.176 918.921 205.856C923.19 184.464 933.089 171.35 955.327 167.716Z" fill="white"/>
<path d="M1580.7 131.548C1583.24 131.564 1585.8 131.617 1588.34 131.706C1608.83 132.387 1628.18 141.284 1642.04 156.396C1663.17 179.232 1665.43 206.474 1664.34 235.697C1624.35 236.719 1580.44 235.85 1540.18 235.903C1545.12 262.153 1562.03 277.638 1589.92 276.443C1605.67 275.767 1615.86 267.655 1625.97 256.147C1630.87 258.785 1637.75 263.454 1642.6 266.536C1647.7 270.173 1652.95 273.285 1658.3 276.526C1628.98 320.513 1564.05 325.537 1525.19 291.789C1488.63 260.025 1487.32 194.284 1519.65 159.117C1536.95 140.288 1555.68 132.921 1580.7 131.548Z" fill="url(#paint0_linear_15_21)"/>
<path d="M1577.97 167.74C1605.96 166.665 1617.85 179.043 1623.65 205.529C1612.63 206.389 1600.15 206.055 1588.98 205.985C1573.28 206.162 1556.02 206.497 1540.43 205.551C1544.25 183.925 1555.91 170.907 1577.97 167.74Z" fill="white"/>
<path d="M1410.84 131.569C1443.13 129.429 1469.12 147.719 1475.33 180.033C1478.53 196.703 1477.41 215.041 1477.45 232.078C1477.64 257.675 1477.57 283.272 1477.24 308.868C1463.17 309.341 1448.28 309.044 1434.11 309.164C1433.97 285.447 1433.95 261.73 1434.08 238.012C1434.1 208.365 1439.84 165.16 1393.08 171.977C1386.15 172.987 1381.68 175.99 1375.98 179.906C1375.66 180.192 1375.36 180.485 1375.06 180.782C1360.28 195.518 1363.65 222.737 1363.69 242.327L1363.75 309.119C1349.02 309.32 1334.46 308.873 1319.57 309.201C1318.86 251.96 1319.49 193.27 1319.5 135.877C1333.74 135.776 1347.99 135.786 1362.23 135.909L1362.42 159.457C1374.26 140.961 1389.06 132.852 1410.84 131.569Z" fill="url(#paint1_linear_15_21)"/>
<path d="M1071.98 64.4045C1087.75 64.7364 1104.44 64.4762 1120.29 64.4484C1120.59 111.68 1120.9 161.572 1120.06 208.696C1113.4 218.704 1111.36 222.755 1111.31 235.079C1111.25 248.297 1111.43 261.5 1111.58 274.719C1126.94 267.463 1133.93 255.217 1149.35 247.952C1168.72 238.829 1176.96 250.738 1193.83 255.939C1200.82 258.094 1208.73 257.484 1216.02 257.185L1216.24 273.75L1215.81 291.449C1208.64 297.156 1201.56 302.967 1194.57 308.881C1183.02 309.48 1171.49 308.835 1159.96 308.987C1131.55 309.36 1102.86 308.503 1074.51 309.264C1075.16 279.654 1074.69 248.955 1074.75 219.292C1074.76 211.431 1071.73 201.652 1071.76 193.135C1071.93 150.399 1071.23 107.075 1071.98 64.4045Z" fill="url(#paint2_linear_15_21)"/>
<path d="M1160.17 261.479C1171.63 263.847 1175.16 272.199 1166.57 280.87C1167.22 285.293 1170.6 291.501 1167.97 295.122L1164.83 295.305L1153.72 295.06L1156.7 281.484C1147.46 271.882 1149.59 267.797 1160.17 261.479Z" fill="white"/>
<path d="M1244.36 135.956C1258.91 135.569 1274.42 135.867 1289.04 135.902L1289.02 309.011L1244.46 309.139C1242.99 253.7 1244.32 191.847 1244.36 135.956Z" fill="url(#paint3_linear_15_21)"/>
<path d="M1264.82 61.3159C1274.37 60.626 1283.56 65.1256 1288.87 73.0984C1294.18 81.0712 1294.81 91.2874 1290.5 99.8502C1286.2 108.412 1277.64 114 1268.08 114.481C1253.51 115.215 1241.08 104.078 1240.19 89.5091C1239.3 74.9398 1250.28 62.3667 1264.82 61.3159Z" fill="url(#paint4_linear_15_21)"/>
<defs>
<linearGradient id="paint0_linear_15_21" x1="1643" y1="153" x2="1470.5" y2="346.5" gradientUnits="userSpaceOnUse">
<stop stop-color="#7C3AED"/>
<stop offset="1" stop-color="#0F172A"/>
</linearGradient>
<linearGradient id="paint1_linear_15_21" x1="1456.5" y1="131" x2="1213" y2="338.5" gradientUnits="userSpaceOnUse">
<stop stop-color="#7C3AED"/>
<stop offset="1" stop-color="#0F172A"/>
</linearGradient>
<linearGradient id="paint2_linear_15_21" x1="1187.5" y1="116.5" x2="978" y2="336.5" gradientUnits="userSpaceOnUse">
<stop stop-color="#7C3AED"/>
<stop offset="1" stop-color="#0F172A"/>
</linearGradient>
<linearGradient id="paint3_linear_15_21" x1="1302.5" y1="140.5" x2="1076.5" y2="270.5" gradientUnits="userSpaceOnUse">
<stop stop-color="#7C3AED"/>
<stop offset="1" stop-color="#0F172A"/>
</linearGradient>
<linearGradient id="paint4_linear_15_21" x1="1266.74" y1="61.2466" x2="1203.5" y2="115" gradientUnits="userSpaceOnUse">
<stop stop-color="#7C3AED"/>
<stop offset="1" stop-color="#0F172A"/>
</linearGradient>
</defs>
</svg>
