<svg width="258" height="295" viewBox="0 0 258 295" fill="none" xmlns="http://www.w3.org/2000/svg">
<path d="M122.056 100.599C137.983 98.8337 153.144 105.704 163.352 117.802C163.769 130.541 160.579 144.683 176.558 148.919C176.413 151.667 176.275 154.366 175.888 157.077C174 170.285 166.615 182.096 155.846 189.945C144.442 198.257 132.37 200.276 118.694 198.281C114.606 197.486 108.128 195.646 104.61 193.435C96.6677 196.507 87.633 199.273 79.5015 201.82C81.3268 193.991 83.6862 185.82 85.8932 178.067C81.0242 170.149 77.9645 164.056 76.9482 154.503C75.633 141.748 79.433 128.993 87.514 119.037C96.1265 108.552 108.552 101.919 122.056 100.599Z" fill="url(#paint0_linear_1_4)"/>
<path d="M125.467 141.593C129.682 140.573 133.928 143.155 134.96 147.367C135.991 151.579 133.42 155.832 129.211 156.876C124.986 157.923 120.713 155.34 119.677 151.112C118.641 146.883 121.236 142.617 125.467 141.593Z" fill="white"/>
<path d="M102.249 141.625C106.483 140.863 110.532 143.684 111.284 147.92C112.036 152.156 109.206 156.198 104.968 156.94C100.744 157.68 96.7187 154.861 95.9692 150.639C95.2195 146.417 98.0287 142.385 102.249 141.625Z" fill="white"/>
<path d="M149.405 141.676C153.595 140.945 157.585 143.746 158.32 147.935C159.056 152.124 156.259 156.116 152.07 156.856C147.877 157.596 143.877 154.794 143.141 150.6C142.405 146.405 145.21 142.409 149.405 141.676Z" fill="white"/>
<path d="M129.43 29.526C136.152 33.0738 142.799 37.4855 149.427 41.2648C160.291 47.4955 171.444 53.2098 182.847 58.388C177.801 62.6325 173.717 67.507 172.169 74.0985C160.112 69.6363 140.567 58.2538 129.303 51.6118C109.53 63.7285 90.9578 74.2382 68.7928 81.7355C64.7278 83.1105 58.3853 85.2883 54.262 86.119L54.2505 123.602C54.2543 130.882 54.1578 138.13 54.4705 145.374C55.4905 169.01 65.668 190.554 81.7138 207.724C85.5375 211.816 89.3398 215.106 93.5215 218.868C89.761 218.363 79.144 204.525 77.0423 203.409C76.517 203.753 76.3348 206.077 75.974 206.851C75.072 208.787 72.6348 211.883 72.623 214.093C72.61 216.549 70.5208 220.479 71.762 222.382C71.8488 222.514 71.9385 222.644 72.031 222.773L71.886 223.167L70.8023 223.153C70.49 223.649 70.5385 223.395 70.554 223.909L71.221 224.02C74.5558 228.946 83.687 234.938 88.2868 238.972C89.3645 239.917 93.295 242.292 93.6485 243.41C91.3798 242.277 84.6285 236.952 82.523 235.214C77.1183 230.752 71.5728 225.98 66.762 220.833C49.928 202.82 38.9683 180.538 35.7053 156.042C34.5148 147.104 34.7138 138.377 34.7123 129.445L34.723 102.271L34.732 82.4265C34.7315 79.1007 34.8555 74.102 34.551 70.9027C57.9805 65.2195 77.4658 58.1838 98.9385 46.993C109.354 41.5645 119.315 34.9198 129.43 29.526Z" fill="url(#paint1_linear_1_4)"/>
<path d="M203.248 150.248C209.005 150.227 217.124 150.438 222.653 150.09C220.255 198.248 186.041 235.369 144.457 255.9C139.484 258.355 134.796 260.912 129.505 262.742C118.384 258.432 108.265 252.557 98.068 246.395C97.346 245.959 94.0287 243.853 93.6485 243.41C93.295 242.292 89.3645 239.917 88.2867 238.972C83.687 234.938 74.5557 228.946 71.221 224.02L70.554 223.909C70.5385 223.395 70.49 223.649 70.8022 223.153L71.886 223.167L72.031 222.772C71.9385 222.644 71.8487 222.514 71.762 222.382C70.5207 220.479 72.61 216.548 72.623 214.093C72.6347 211.883 75.072 208.787 75.974 206.851C76.3347 206.076 76.517 203.753 77.0422 203.409C79.144 204.525 89.761 218.363 93.5215 218.868C96.6735 221.005 100.029 224.137 103.153 226.219C111.511 231.79 120.334 237.007 129.414 241.29C167.058 222.574 199.762 194.979 203.248 150.248Z" fill="url(#paint2_linear_1_4)"/>
<path d="M177.544 92.586C179.014 92.4597 180.925 92.4615 182.414 92.4752C195.595 92.58 208.772 92.5122 221.952 92.5095C226.032 92.5087 230.188 95.05 230.325 99.4587C230.671 110.561 230.419 121.752 230.4 132.865C230.391 138.058 227.923 140.308 223.296 142.061C221.326 142.313 212.872 142.118 210.281 142.141L189.997 142.132C182.673 142.118 171.134 144.053 170.989 133.029C170.848 122.288 170.916 111.511 170.915 100.77C170.915 96.3363 173.253 93.6542 177.544 92.586Z" fill="#0D2B49"/>
<path d="M200.281 105.785C207.448 105.339 211.492 114.338 203.865 119.731C204.524 122.135 205.08 127.431 205.339 129.996L201.125 130.032L196.046 130.009C196.536 126.556 196.999 123.279 197.66 119.854C195.779 118.463 194.047 116.695 193.5 114.347C193.102 112.628 193.421 110.821 194.383 109.342C195.741 107.25 197.933 106.289 200.281 105.785Z" fill="white"/>
<path d="M199.415 61.5823C205.195 60.8923 210.965 63.6218 215.052 67.567C221.795 74.077 221.171 81.197 221.235 89.8968C219.407 89.7048 214.827 89.7545 212.824 89.7268C212.882 81.0555 213.511 72.656 202.717 70.323C198.732 69.5305 194.908 71.015 192.026 73.7913C187.503 78.1483 188.427 84.2675 188.481 89.986C185.733 89.9408 182.986 89.8775 180.24 89.7965C180.152 82.4265 179.397 75.6573 184.337 69.5613C188.23 64.7568 193.378 62.291 199.415 61.5823Z" fill="#0D2B49"/>
<defs>
<linearGradient id="paint0_linear_1_4" x1="82" y1="202" x2="134.5" y2="137" gradientUnits="userSpaceOnUse">
<stop stop-color="#1366BF"/>
<stop offset="1" stop-color="#1FA49A"/>
</linearGradient>
<linearGradient id="paint1_linear_1_4" x1="41.5" y1="80" x2="167.297" y2="257.509" gradientUnits="userSpaceOnUse">
<stop stop-color="#1366BF"/>
<stop offset="1" stop-color="#1FA49A"/>
</linearGradient>
<linearGradient id="paint2_linear_1_4" x1="24.5" y1="96.5" x2="158.999" y2="245.004" gradientUnits="userSpaceOnUse">
<stop stop-color="#1366BF"/>
<stop offset="1" stop-color="#1FA49A"/>
</linearGradient>
</defs>
</svg>
